<?xml version="1.0" standalone="no"?>
<!DOCTYPE svg PUBLIC "-//W3C//DTD SVG 20010904//EN"
 "http://www.w3.org/TR/2001/REC-SVG-20010904/DTD/svg10.dtd">
<svg version="1.0" xmlns="http://www.w3.org/2000/svg"
 width="260.000000pt" height="260.000000pt" viewBox="0 0 260.000000 260.000000"
 preserveAspectRatio="xMidYMid meet">
<metadata>
Created by potrace 1.11, written by Peter Selinger 2001-2013
</metadata>
<g transform="translate(0.000000,260.000000) scale(0.100000,-0.100000)"
fill="#000000" stroke="none">
<path d="M115 2474 c-55 -58 -101 -110 -103 -115 -6 -16 0 -24 171 -207 22
-23 42 -40 45 -37 4 3 7 34 7 68 l1 62 994 0 995 0 0 -185 0 -185 -58 1 -57 0
-11 -40 c-6 -23 -19 -72 -29 -111 -20 -72 -171 -662 -174 -680 -9 -44 -31
-115 -36 -115 -3 0 -22 64 -41 143 -156 611 -204 793 -210 797 -6 4 -300 5
-334 1 -8 -1 -11 -484 -5 -1134 l0 -48 108 3 107 3 0 457 c0 252 2 452 6 445
3 -7 16 -57 28 -112 13 -55 29 -122 37 -150 8 -27 46 -162 85 -300 38 -137 77
-271 85 -297 l16 -48 117 0 118 0 17 63 c10 34 26 91 36 127 35 119 122 435
126 454 2 10 10 42 18 70 8 28 18 65 21 81 32 167 33 156 34 -327 l1 -468 110
0 111 0 -2 870 c-1 592 -5 872 -12 877 -6 3 -500 6 -1099 6 -776 0 -1091 3
-1096 11 -4 6 -7 32 -8 59 -2 62 -3 67 -12 67 -4 0 -52 -48 -107 -106z"/>
<path d="M203 1892 l-52 -3 0 -859 c0 -619 3 -861 11 -866 6 -4 498 -7 1092
-7 595 1 1088 -1 1097 -3 13 -4 16 -16 14 -64 -1 -33 2 -63 7 -66 5 -3 32 19
61 48 166 172 161 166 151 187 -13 28 -206 233 -213 226 -3 -4 -6 -34 -6 -68
l0 -62 -995 0 -995 0 -3 398 c-2 314 0 397 10 398 7 0 71 2 143 4 154 3 201
10 260 35 50 22 116 78 144 123 80 132 68 347 -25 456 -69 81 -161 117 -304
120 -192 5 -348 6 -397 3z m452 -202 c67 -26 97 -77 97 -164 0 -67 -10 -100
-39 -132 -33 -38 -81 -50 -215 -53 l-128 -3 0 180 c0 132 3 181 12 184 26 9
245 -1 273 -12z"/>
</g>
</svg>
